<svg viewBox="0 0 240 240" xmlns="http://www.w3.org/2000/svg"><defs><style>.a649db57-c5c2-4022-a750-c7cd8d05547e{fill:#e1b66c;}.bbf9c7d2-9c56-46ad-a4e4-d7890bd50c8f,.e70c97c1-5b17-4c0a-a264-d7c40010d898,.ee1b4b52-9bc1-43ec-ac5a-b4fe15a5a962,.f274dc2d-9e7d-46b2-b4be-4487a89916bc,.f65e3f72-34cf-4f62-ad62-7da1a47ad60f,.fdd8378b-68d6-41a5-b012-f5a49e6a3ffb{fill:none;}.bbf9c7d2-9c56-46ad-a4e4-d7890bd50c8f,.e70c97c1-5b17-4c0a-a264-d7c40010d898,.ee1b4b52-9bc1-43ec-ac5a-b4fe15a5a962,.f2627878-5058-4fc2-b87a-437ddf7eb6f7,.f274dc2d-9e7d-46b2-b4be-4487a89916bc,.f65e3f72-34cf-4f62-ad62-7da1a47ad60f,.fdd8378b-68d6-41a5-b012-f5a49e6a3ffb{stroke:#17326f;}.e70c97c1-5b17-4c0a-a264-d7c40010d898,.f2627878-5058-4fc2-b87a-437ddf7eb6f7,.f65e3f72-34cf-4f62-ad62-7da1a47ad60f,.fdd8378b-68d6-41a5-b012-f5a49e6a3ffb{stroke-miterlimit:10;}.e70c97c1-5b17-4c0a-a264-d7c40010d898{stroke-width:1.54px;}.a72cf8b9-1acf-4634-b331-7b8fe38117b9{fill:#fff;}.bbf9c7d2-9c56-46ad-a4e4-d7890bd50c8f,.ee1b4b52-9bc1-43ec-ac5a-b4fe15a5a962,.f274dc2d-9e7d-46b2-b4be-4487a89916bc,.fdd8378b-68d6-41a5-b012-f5a49e6a3ffb{stroke-linecap:round;}.bbf9c7d2-9c56-46ad-a4e4-d7890bd50c8f,.ee1b4b52-9bc1-43ec-ac5a-b4fe15a5a962,.f274dc2d-9e7d-46b2-b4be-4487a89916bc{stroke-linejoin:round;}.f274dc2d-9e7d-46b2-b4be-4487a89916bc,.f65e3f72-34cf-4f62-ad62-7da1a47ad60f,.fdd8378b-68d6-41a5-b012-f5a49e6a3ffb{stroke-width:1.64px;}.e3257a38-edef-4bfb-9c9f-cf20b5f6798f{fill:#1956a5;}.bbf9c7d2-9c56-46ad-a4e4-d7890bd50c8f{stroke-width:3.14px;}.a6046906-e433-4d96-bdf8-08924dc4dc8d{fill:#dedede;}.f1e4f42f-33f4-491b-898e-e92f75f50a11{fill:#4dace2;}.a9cacbf8-e6f5-4d9b-b3c9-d8b277f10bec{fill:#17326f;}.aa114680-53c5-41d4-9ba5-4f929748fa2d,.f2627878-5058-4fc2-b87a-437ddf7eb6f7{fill:#e9e9e9;}.ea7908a2-f59f-40d5-acb1-6db7b43bf918{fill:#a0a0a0;}.ee1b4b52-9bc1-43ec-ac5a-b4fe15a5a962{stroke-width:2px;}</style></defs><title>缺省页小爱</title><g id="ea5ced76-42cf-4bbe-a320-1b57f93c0a9f"><path d="M80.13,161.78s-4.06.22-11.2-1.94c-1.17-.35-3.23.71-4,1.65-2.16,2.65-13.28,18.15-15.55,22.91a.73.73,0,0,0,1,.94c3.27-2.06,12-4.58,18.11-2.47l7.71-11Z" class="a649db57-c5c2-4022-a750-c7cd8d05547e"></path><path d="M80.13,161.78s-4.06.22-11.2-1.94c-1.17-.35-3.23.71-4,1.65-2.16,2.65-13.28,18.15-15.55,22.91a.73.73,0,0,0,1,.94c3.27-2.06,12-4.58,18.11-2.47l7.71-11Z" class="e70c97c1-5b17-4c0a-a264-d7c40010d898"></path><path d="M166.61,181.25s8.13,1.17,16.13,10a.77.77,0,0,0,1.35-.48l3.72-25.29c.35-1.71.66-2.94-.42-3.72-3-2.14-3.54-2.41-9.4-5.15-1.93-.91-9.13-1.09-11.78.29-14,7.27.4,24.35.4,24.35" class="a649db57-c5c2-4022-a750-c7cd8d05547e"></path><path d="M166.61,181.25s8.13,1.17,16.13,10a.77.77,0,0,0,1.35-.48l3.72-25.29c.35-1.71.66-2.94-.42-3.72-3-2.14-3.54-2.41-9.4-5.15-1.93-.91-9.13-1.09-11.78.29C152.23,164.17,166.61,181.25,166.61,181.25Z" class="e70c97c1-5b17-4c0a-a264-d7c40010d898"></path><path d="M160.74,221.09c.15,2.75,3.66,5.55,5.81,3.83,3.47-2.78,4-4.81,8.35-18a3.49,3.49,0,0,0,.07-1l3.24-25.23-20.62-12Z" class="a649db57-c5c2-4022-a750-c7cd8d05547e"></path><path d="M160.74,221.09c.15,2.75,3.66,5.55,5.81,3.83,3.47-2.78,4-4.81,8.35-18a3.49,3.49,0,0,0,.07-1l3.24-25.23-20.62-12Z" class="e70c97c1-5b17-4c0a-a264-d7c40010d898"></path><path d="M68.52,182.87l7.71-11a45.1,45.1,0,0,0,2.45,12.51.8.8,0,0,1-1.16,1c-2.19-1.34-5.8-3.08-9-2.47" class="a649db57-c5c2-4022-a750-c7cd8d05547e"></path><path d="M68.52,182.87l7.71-11a45.1,45.1,0,0,0,2.45,12.51.8.8,0,0,1-1.16,1C75.33,184,71.72,182.26,68.52,182.87Z" class="e70c97c1-5b17-4c0a-a264-d7c40010d898"></path><path d="M194.36,99.81h0a1.89,1.89,0,0,0,1.89-1.89V89.84a1.89,1.89,0,1,0-3.78,0v8.08a1.89,1.89,0,0,0,1.89,1.89" class="a72cf8b9-1acf-4634-b331-7b8fe38117b9"></path><path d="M194.36,99.81h0a1.89,1.89,0,0,0,1.89-1.89V89.84a1.89,1.89,0,1,0-3.78,0v8.08A1.89,1.89,0,0,0,194.36,99.81Z" class="f274dc2d-9e7d-46b2-b4be-4487a89916bc"></path><path d="M133.33,13.85A13.15,13.15,0,0,0,120.19,27a13.14,13.14,0,1,0-3.67,9.11V47h7.35V36.11a13.14,13.14,0,1,0,9.46-22.26m-26.28,21.2a8.06,8.06,0,1,1,8.06-8,8.05,8.05,0,0,1-8.06,8m26.28,0a8.06,8.06,0,1,1,8.06-8,8,8,0,0,1-8.06,8" class="a72cf8b9-1acf-4634-b331-7b8fe38117b9"></path><path d="M133.33,13.85A13.15,13.15,0,0,0,120.19,27a13.14,13.14,0,1,0-3.67,9.11V47h7.35V36.11a13.14,13.14,0,1,0,9.46-22.26Zm-26.28,21.2a8.06,8.06,0,1,1,8.06-8A8.05,8.05,0,0,1,107.05,35.05Zm26.28,0a8.06,8.06,0,1,1,8.06-8A8,8,0,0,1,133.33,35.05Z" class="f274dc2d-9e7d-46b2-b4be-4487a89916bc"></path><path d="M145.43,93.88a1.08,1.08,0,1,1-1.08-1.08,1.08,1.08,0,0,1,1.08,1.08" class="a72cf8b9-1acf-4634-b331-7b8fe38117b9"></path><path d="M178.4,140.85H62a4.65,4.65,0,0,1-4.63-4.64V51.55A4.65,4.65,0,0,1,62,46.91H178.4A4.65,4.65,0,0,1,183,51.55v84.66a4.65,4.65,0,0,1-4.63,4.64" class="a72cf8b9-1acf-4634-b331-7b8fe38117b9"></path><rect rx="4.63" height="93.93" width="125.68" y="46.91" x="57.36" class="f65e3f72-34cf-4f62-ad62-7da1a47ad60f"></rect><path d="M163,56.88l-42.25,8.18a2.65,2.65,0,0,1-1,0L77.41,56.88c-1.94-.38-3.71,1.37-3.71,3.66v66.68c0,2.29,1.77,4,3.71,3.66l42.26-8.15a3,3,0,0,1,1,0L163,130.88c1.94.38,3.71-1.37,3.71-3.66V60.54c0-2.29-1.77-4-3.72-3.66" class="a72cf8b9-1acf-4634-b331-7b8fe38117b9"></path><path d="M163,56.88l-42.25,8.18a2.65,2.65,0,0,1-1,0L77.41,56.88c-1.94-.38-3.71,1.37-3.71,3.66v66.68c0,2.29,1.77,4,3.71,3.66l42.26-8.15a3,3,0,0,1,1,0L163,130.88c1.94.38,3.71-1.37,3.71-3.66V60.54C166.69,58.25,164.92,56.5,163,56.88Z" class="f65e3f72-34cf-4f62-ad62-7da1a47ad60f"></path><path d="M52.91,108.81H51.58a4.08,4.08,0,0,1-4.06-4.06V83A4.08,4.08,0,0,1,51.58,79h1.33A4.08,4.08,0,0,1,57,83v21.74a4.08,4.08,0,0,1-4.06,4.06" class="a72cf8b9-1acf-4634-b331-7b8fe38117b9"></path><rect rx="4.06" height="29.86" width="9.44" y="78.95" x="47.52" class="f274dc2d-9e7d-46b2-b4be-4487a89916bc"></rect><path d="M45.64,99.81h0a1.89,1.89,0,0,1-1.89-1.89V89.84a1.89,1.89,0,1,1,3.77,0v8.08a1.89,1.89,0,0,1-1.88,1.89" class="a72cf8b9-1acf-4634-b331-7b8fe38117b9"></path><path d="M45.64,99.81h0a1.89,1.89,0,0,1-1.89-1.89V89.84a1.89,1.89,0,1,1,3.77,0v8.08A1.89,1.89,0,0,1,45.64,99.81Z" class="f274dc2d-9e7d-46b2-b4be-4487a89916bc"></path><rect rx="4.06" height="29.86" width="9.44" y="78.95" x="183.03" class="f274dc2d-9e7d-46b2-b4be-4487a89916bc"></rect><path d="M76.23,141h87.84v27.1a42.54,42.54,0,0,1-42.52,42.53h-2.8a42.65,42.65,0,0,1-42.52-42.52V157.27" class="e3257a38-edef-4bfb-9c9f-cf20b5f6798f"></path><path d="M76.23,141h87.84v27.1a42.54,42.54,0,0,1-42.52,42.53h-2.8a42.65,42.65,0,0,1-42.52-42.52V157.27" class="fdd8378b-68d6-41a5-b012-f5a49e6a3ffb"></path><polygon points="102.75 152.41 76.23 141.03 110.51 141.03 102.75 152.41" class="a72cf8b9-1acf-4634-b331-7b8fe38117b9"></polygon><polygon points="102.75 152.41 76.23 141.03 110.51 141.03 102.75 152.41" class="f274dc2d-9e7d-46b2-b4be-4487a89916bc"></polygon><polygon points="137.54 152.41 164.07 141.03 129.79 141.03 137.54 152.41" class="a72cf8b9-1acf-4634-b331-7b8fe38117b9"></polygon><polygon points="137.54 152.41 164.07 141.03 129.79 141.03 137.54 152.41" class="f274dc2d-9e7d-46b2-b4be-4487a89916bc"></polygon><path d="M90.2,87.66s.33-5.6,6.09-5.67c4.25,0,5.73,2.41,6.1,5.67" class="bbf9c7d2-9c56-46ad-a4e4-d7890bd50c8f"></path><path d="M137.78,87.66s.33-5.6,6.1-5.67c4.25,0,5.72,2.41,6.1,5.67" class="bbf9c7d2-9c56-46ad-a4e4-d7890bd50c8f"></path><path d="M96,95.64c0,1.39-3.67,2.52-8.21,2.52S79.54,97,79.54,95.64s3.68-2.51,8.21-2.51S96,94.25,96,95.64" class="a6046906-e433-4d96-bdf8-08924dc4dc8d"></path><path d="M160.84,95.64c0,1.39-3.67,2.52-8.21,2.52s-8.2-1.13-8.2-2.52,3.67-2.51,8.2-2.51,8.21,1.12,8.21,2.51" class="a6046906-e433-4d96-bdf8-08924dc4dc8d"></path><path d="M77.25,163.62a105.21,105.21,0,0,1-20.72-15.39C46.2,138,39,124.48,51.74,117c9.94-5.79,23.93,16,29.28,24.73a28.69,28.69,0,0,0,4.77,4.95" class="e3257a38-edef-4bfb-9c9f-cf20b5f6798f"></path><path d="M77.25,163.62a105.21,105.21,0,0,1-20.72-15.39C46.2,138,39,124.48,51.74,117c9.94-5.79,23.93,16,29.28,24.73a28.69,28.69,0,0,0,4.77,4.95" class="f274dc2d-9e7d-46b2-b4be-4487a89916bc"></path><path d="M51.74,117c-10.71,6.24-6.93,17.18,0,25.88,4.12-4.64,12.47-12.95,19-15.93-6-7.33-13.21-13.33-19-9.95" class="f1e4f42f-33f4-491b-898e-e92f75f50a11"></path><path d="M51.74,117c-10.71,6.24-6.93,17.18,0,25.88,4.12-4.64,12.47-12.95,19-15.93C64.71,119.66,57.54,113.66,51.74,117Z" class="f274dc2d-9e7d-46b2-b4be-4487a89916bc"></path><polygon points="128.3 151.03 112 151.03 107.96 179.44 120.15 191.51 132.34 179.44 128.3 151.03" class="a72cf8b9-1acf-4634-b331-7b8fe38117b9"></polygon><polygon points="128.3 151.03 112 151.03 107.96 179.44 120.15 191.51 132.34 179.44 128.3 151.03" class="f65e3f72-34cf-4f62-ad62-7da1a47ad60f"></polygon><polygon points="128.3 151.03 112 151.03 110.51 141.03 129.79 141.03 128.3 151.03" class="a72cf8b9-1acf-4634-b331-7b8fe38117b9"></polygon><polygon points="128.3 151.03 112 151.03 110.51 141.03 129.79 141.03 128.3 151.03" class="f274dc2d-9e7d-46b2-b4be-4487a89916bc"></polygon><path d="M70,182.74l-.32,0-.74-.11a.41.41,0,0,0-.45.26,4.33,4.33,0,0,0-3,4.44L74.14,222a4.17,4.17,0,0,0,4,4.11l85.92-.3a4.15,4.15,0,0,0,4-4l2-33.17a23.58,23.58,0,0,0,.09-2.91l.44-1.4s-.25-.15-.74-.4a1.69,1.69,0,0,0-1.93-1.27Z" class="a649db57-c5c2-4022-a750-c7cd8d05547e"></path><path d="M70,182.74l-.32,0-.74-.11a.41.41,0,0,0-.45.26,4.33,4.33,0,0,0-3,4.44L74.14,222a4.17,4.17,0,0,0,4,4.11l85.92-.3a4.15,4.15,0,0,0,4-4l2-33.17a23.58,23.58,0,0,0,.09-2.91l.44-1.4s-.25-.15-.74-.4a1.69,1.69,0,0,0-1.93-1.27Z" class="e70c97c1-5b17-4c0a-a264-d7c40010d898"></path><path d="M68.12,182.87s-6.83,3.62-9.11,18.71a1.65,1.65,0,0,0,1.53,1.91c7.76.46,39.54,1,50.86,1.11,11.95.12,40.67.24,47.31.56a1.63,1.63,0,0,0,1.68-1.28,107.57,107.57,0,0,1,7.52-21.16Z" class="a649db57-c5c2-4022-a750-c7cd8d05547e"></path><path d="M68.12,182.87s-6.83,3.62-9.11,18.71a1.65,1.65,0,0,0,1.53,1.91c7.76.46,39.54,1,50.86,1.11,11.95.12,40.67.24,47.31.56a1.63,1.63,0,0,0,1.68-1.28,107.57,107.57,0,0,1,7.52-21.16Z" class="e70c97c1-5b17-4c0a-a264-d7c40010d898"></path><path d="M163.11,177.09c.58-3.3,1.55-12.39.91-35,3.62,2.43,14.46,10.65,18.57,24.27l0,.06a3.5,3.5,0,0,1-.42.72,23,23,0,0,0-19,10" class="e3257a38-edef-4bfb-9c9f-cf20b5f6798f"></path><path d="M164.83,143.58c4.3,3.13,13.23,10.79,16.93,22.7l0,.07a23.9,23.9,0,0,0-17.46,8c.51-4.73,1-13.83.57-30.75m-1.63-2.94c1,32.09-1.2,37.84-1.2,37.84,0,.52.28,1.1.3,1.6a21.91,21.91,0,0,1,19.93-12.19c.55,0,.88-.91,1.19-1.47-5-17.1-20.22-25.78-20.22-25.78" class="a9cacbf8-e6f5-4d9b-b3c9-d8b277f10bec"></path><path d="M174.63,193a8.73,8.73,0,0,1-4.82-1.44l-.12-.08a9.2,9.2,0,0,1-2.25-2.19c-1.84-2.16-3.5-7.67-3.76-12.4,2.23-5.11,10.66-9.72,17.82-9.72h.25l1.07,0a37.35,37.35,0,0,1,1,17.06q-.07.36-.18.72l-.09.34c-.12.48-.34,1.24-.35,1.24a8.8,8.8,0,0,1-8.57,6.44" class="f1e4f42f-33f4-491b-898e-e92f75f50a11"></path><path d="M181.5,167.91h.71a36.08,36.08,0,0,1,.84,16.16c0,.2-.09.42-.16.65l-.09.36c-.12.46-.34,1.2-.35,1.23a8.09,8.09,0,0,1-12.21,4.55l0,0h0a8.3,8.3,0,0,1-2.13-2.05l0,0,0,0c-1.48-1.74-3.22-6.8-3.52-11.7,2.23-4.8,10.21-9.09,17-9.09m0-1.56c-7.67,0-16.4,5-18.61,10.36.25,5.1,2,10.77,3.92,13a9.74,9.74,0,0,0,2.53,2.43l0,0h0A9.66,9.66,0,0,0,184,186.74s.24-.78.36-1.27.21-.74.27-1.11a38.45,38.45,0,0,0-1.16-17.94c-.54,0-1.11-.06-1.65-.07h-.27" class="a9cacbf8-e6f5-4d9b-b3c9-d8b277f10bec"></path><path d="M80.13,161.78s-4.06.22-11.2-1.94c-1.17-.35-3.23.71-4,1.65-2.16,2.65-13.28,18.15-15.55,22.91a.73.73,0,0,0,1,.94c3.27-2.06,12-4.58,18.11-2.47l7.71-11Z" class="aa114680-53c5-41d4-9ba5-4f929748fa2d"></path><path d="M80.13,161.78s-4.06.22-11.2-1.94c-1.17-.35-3.23.71-4,1.65-2.16,2.65-13.28,18.15-15.55,22.91a.73.73,0,0,0,1,.94c3.27-2.06,12-4.58,18.11-2.47l7.71-11Z" class="e70c97c1-5b17-4c0a-a264-d7c40010d898"></path><path d="M166.61,181.25s8.13,1.17,16.13,10a.77.77,0,0,0,1.35-.48l3.72-25.29c.35-1.71.66-2.94-.42-3.72-3-2.14-3.54-2.41-9.4-5.15-1.93-.91-9.13-1.09-11.78.29-14,7.27.4,24.35.4,24.35" class="a649db57-c5c2-4022-a750-c7cd8d05547e"></path><path d="M166.61,181.25s8.13,1.17,16.13,10a.77.77,0,0,0,1.35-.48l3.72-25.29c.35-1.71.66-2.94-.42-3.72-3-2.14-3.54-2.41-9.4-5.15-1.93-.91-9.13-1.09-11.78.29C152.23,164.17,166.61,181.25,166.61,181.25Z" class="f2627878-5058-4fc2-b87a-437ddf7eb6f7"></path><path d="M160.74,221.09c.15,2.75,3.66,5.55,5.81,3.83,3.47-2.78,4-4.81,8.35-18a3.49,3.49,0,0,0,.07-1l3.24-25.23-20.62-12Z" class="ea7908a2-f59f-40d5-acb1-6db7b43bf918"></path><path d="M160.74,221.09c.15,2.75,3.66,5.55,5.81,3.83,3.47-2.78,4-4.81,8.35-18a3.49,3.49,0,0,0,.07-1l3.24-25.23-20.62-12Z" class="e70c97c1-5b17-4c0a-a264-d7c40010d898"></path><path d="M68.52,182.87l7.71-11a45.1,45.1,0,0,0,2.45,12.51.8.8,0,0,1-1.16,1c-2.19-1.34-5.8-3.08-9-2.47" class="a649db57-c5c2-4022-a750-c7cd8d05547e"></path><path d="M68.52,182.87l7.71-11a45.1,45.1,0,0,0,2.45,12.51.8.8,0,0,1-1.16,1C75.33,184,71.72,182.26,68.52,182.87Z" class="ea7908a2-f59f-40d5-acb1-6db7b43bf918"></path><path d="M194.36,99.81h0a1.89,1.89,0,0,0,1.89-1.89V89.84a1.89,1.89,0,1,0-3.78,0v8.08a1.89,1.89,0,0,0,1.89,1.89" class="a72cf8b9-1acf-4634-b331-7b8fe38117b9"></path><path d="M194.36,99.81h0a1.89,1.89,0,0,0,1.89-1.89V89.84a1.89,1.89,0,1,0-3.78,0v8.08A1.89,1.89,0,0,0,194.36,99.81Z" class="f274dc2d-9e7d-46b2-b4be-4487a89916bc"></path><path d="M133.33,13.85A13.15,13.15,0,0,0,120.19,27a13.14,13.14,0,1,0-3.67,9.11V47h7.35V36.11a13.14,13.14,0,1,0,9.46-22.26Zm-26.28,21.2a8.06,8.06,0,1,1,8.06-8A8.05,8.05,0,0,1,107.05,35.05Zm26.28,0a8.06,8.06,0,1,1,8.06-8A8,8,0,0,1,133.33,35.05Z" class="f274dc2d-9e7d-46b2-b4be-4487a89916bc"></path><path d="M145.43,93.88a1.08,1.08,0,1,1-1.08-1.08,1.08,1.08,0,0,1,1.08,1.08" class="a72cf8b9-1acf-4634-b331-7b8fe38117b9"></path><path d="M52.91,108.81H51.58a4.08,4.08,0,0,1-4.06-4.06V83A4.08,4.08,0,0,1,51.58,79h1.33A4.08,4.08,0,0,1,57,83v21.74a4.08,4.08,0,0,1-4.06,4.06" class="a72cf8b9-1acf-4634-b331-7b8fe38117b9"></path><rect rx="4.06" height="29.86" width="9.44" y="78.95" x="47.52" class="f274dc2d-9e7d-46b2-b4be-4487a89916bc"></rect><path d="M45.64,99.81h0a1.89,1.89,0,0,1-1.89-1.89V89.84a1.89,1.89,0,1,1,3.77,0v8.08a1.89,1.89,0,0,1-1.88,1.89" class="a72cf8b9-1acf-4634-b331-7b8fe38117b9"></path><path d="M45.64,99.81h0a1.89,1.89,0,0,1-1.89-1.89V89.84a1.89,1.89,0,1,1,3.77,0v8.08A1.89,1.89,0,0,1,45.64,99.81Z" class="f274dc2d-9e7d-46b2-b4be-4487a89916bc"></path><rect rx="4.06" height="29.86" width="9.44" y="78.95" x="183.03" class="f274dc2d-9e7d-46b2-b4be-4487a89916bc"></rect><path d="M76.23,141h87.84v27.1a42.54,42.54,0,0,1-42.52,42.53h-2.8a42.65,42.65,0,0,1-42.52-42.52V157.27" class="a72cf8b9-1acf-4634-b331-7b8fe38117b9"></path><path d="M76.23,141h87.84v27.1a42.54,42.54,0,0,1-42.52,42.53h-2.8a42.65,42.65,0,0,1-42.52-42.52V157.27" class="fdd8378b-68d6-41a5-b012-f5a49e6a3ffb"></path><polygon points="102.75 152.41 76.23 141.03 110.51 141.03 102.75 152.41" class="a72cf8b9-1acf-4634-b331-7b8fe38117b9"></polygon><polygon points="102.75 152.41 76.23 141.03 110.51 141.03 102.75 152.41" class="f274dc2d-9e7d-46b2-b4be-4487a89916bc"></polygon><polygon points="137.54 152.41 164.07 141.03 129.79 141.03 137.54 152.41" class="a72cf8b9-1acf-4634-b331-7b8fe38117b9"></polygon><polygon points="137.54 152.41 164.07 141.03 129.79 141.03 137.54 152.41" class="f274dc2d-9e7d-46b2-b4be-4487a89916bc"></polygon><path d="M77.25,163.62a105.21,105.21,0,0,1-20.72-15.39C46.2,138,39,124.48,51.74,117c9.94-5.79,23.93,16,29.28,24.73a28.69,28.69,0,0,0,4.77,4.95" class="a72cf8b9-1acf-4634-b331-7b8fe38117b9"></path><path d="M77.25,163.62a105.21,105.21,0,0,1-20.72-15.39C46.2,138,39,124.48,51.74,117c9.94-5.79,23.93,16,29.28,24.73a28.69,28.69,0,0,0,4.77,4.95" class="f274dc2d-9e7d-46b2-b4be-4487a89916bc"></path><path d="M51.74,117c-10.71,6.24-6.93,17.18,0,25.88,4.12-4.64,12.47-12.95,19-15.93-6-7.33-13.21-13.33-19-9.95" class="a72cf8b9-1acf-4634-b331-7b8fe38117b9"></path><path d="M51.74,117c-10.71,6.24-6.93,17.18,0,25.88,4.12-4.64,12.47-12.95,19-15.93C64.71,119.66,57.54,113.66,51.74,117Z" class="f274dc2d-9e7d-46b2-b4be-4487a89916bc"></path><polygon points="128.3 151.03 112 151.03 107.96 179.44 120.15 191.51 132.34 179.44 128.3 151.03" class="a72cf8b9-1acf-4634-b331-7b8fe38117b9"></polygon><polygon points="128.3 151.03 112 151.03 107.96 179.44 120.15 191.51 132.34 179.44 128.3 151.03" class="f65e3f72-34cf-4f62-ad62-7da1a47ad60f"></polygon><polygon points="128.3 151.03 112 151.03 110.51 141.03 129.79 141.03 128.3 151.03" class="a72cf8b9-1acf-4634-b331-7b8fe38117b9"></polygon><polygon points="128.3 151.03 112 151.03 110.51 141.03 129.79 141.03 128.3 151.03" class="f274dc2d-9e7d-46b2-b4be-4487a89916bc"></polygon><path d="M70,182.74l-.32,0-.74-.11a.41.41,0,0,0-.45.26,4.33,4.33,0,0,0-3,4.44L74.14,222a4.17,4.17,0,0,0,4,4.11l85.92-.3a4.15,4.15,0,0,0,4-4l2-33.17a23.58,23.58,0,0,0,.09-2.91l.44-1.4s-.25-.15-.74-.4a1.69,1.69,0,0,0-1.93-1.27Z" class="aa114680-53c5-41d4-9ba5-4f929748fa2d"></path><path d="M70,182.74l-.32,0-.74-.11a.41.41,0,0,0-.45.26,4.33,4.33,0,0,0-3,4.44L74.14,222a4.17,4.17,0,0,0,4,4.11l85.92-.3a4.15,4.15,0,0,0,4-4l2-33.17a23.58,23.58,0,0,0,.09-2.91l.44-1.4s-.25-.15-.74-.4a1.69,1.69,0,0,0-1.93-1.27Z" class="e70c97c1-5b17-4c0a-a264-d7c40010d898"></path><path d="M68.12,182.87s-6.83,3.62-9.11,18.71a1.65,1.65,0,0,0,1.53,1.91c7.76.46,39.54,1,50.86,1.11,11.95.12,40.67.24,47.31.56a1.63,1.63,0,0,0,1.68-1.28,107.57,107.57,0,0,1,7.52-21.16Z" class="aa114680-53c5-41d4-9ba5-4f929748fa2d"></path><path d="M68.12,182.87s-6.83,3.62-9.11,18.71a1.65,1.65,0,0,0,1.53,1.91c7.76.46,39.54,1,50.86,1.11,11.95.12,40.67.24,47.31.56a1.63,1.63,0,0,0,1.68-1.28,107.57,107.57,0,0,1,7.52-21.16Z" class="e70c97c1-5b17-4c0a-a264-d7c40010d898"></path><path d="M163.11,177.09c.58-3.3,1.55-12.39.91-35,3.62,2.43,14.46,10.65,18.57,24.27l0,.06a3.5,3.5,0,0,1-.42.72,23,23,0,0,0-19,10" class="a72cf8b9-1acf-4634-b331-7b8fe38117b9"></path><path d="M164.83,143.58c4.3,3.13,13.23,10.79,16.93,22.7l0,.07a23.9,23.9,0,0,0-17.46,8c.51-4.73,1-13.83.57-30.75m-1.63-2.94c1,32.09-1.2,37.84-1.2,37.84,0,.52.28,1.1.3,1.6a21.91,21.91,0,0,1,19.93-12.19c.55,0,.88-.91,1.19-1.47-5-17.1-20.22-25.78-20.22-25.78" class="a9cacbf8-e6f5-4d9b-b3c9-d8b277f10bec"></path><path d="M174.63,193a8.73,8.73,0,0,1-4.82-1.44l-.12-.08a9.2,9.2,0,0,1-2.25-2.19c-1.84-2.16-3.5-7.67-3.76-12.4,2.23-5.11,10.66-9.72,17.82-9.72h.25l1.07,0a37.35,37.35,0,0,1,1,17.06q-.07.36-.18.72l-.09.34c-.12.48-.34,1.24-.35,1.24a8.8,8.8,0,0,1-8.57,6.44" class="a72cf8b9-1acf-4634-b331-7b8fe38117b9"></path><path d="M181.5,167.91h.71a36.08,36.08,0,0,1,.84,16.16c0,.2-.09.42-.16.65l-.09.36c-.12.46-.34,1.2-.35,1.23a8.09,8.09,0,0,1-12.21,4.55l0,0h0a8.3,8.3,0,0,1-2.13-2.05l0,0,0,0c-1.48-1.74-3.22-6.8-3.52-11.7,2.23-4.8,10.21-9.09,17-9.09m0-1.56c-7.67,0-16.4,5-18.61,10.36.25,5.1,2,10.77,3.92,13a9.74,9.74,0,0,0,2.53,2.43l0,0h0A9.66,9.66,0,0,0,184,186.74s.24-.78.36-1.27.21-.74.27-1.11a38.45,38.45,0,0,0-1.16-17.94c-.54,0-1.11-.06-1.65-.07h-.27" class="a9cacbf8-e6f5-4d9b-b3c9-d8b277f10bec"></path><path d="M108.36,98.82c0,3.72,5.31,6.74,11.85,6.72s11.82-3,11.82-6.77" class="ee1b4b52-9bc1-43ec-ac5a-b4fe15a5a962"></path></g></svg>